<svg xmlns="http://www.w3.org/2000/svg" viewBox="0 0 160 21.048">
  <g id="logo-opencell" transform="translate(0.04 0.02)" fill="#fff" vertical-align= "middle" >
    <path id="Trace_3" data-name="Trace 3"  d="M378.641,280.66V264.652H374.01v20.011h10.321v-4Zm-15.807,0V264.652H358.2v20.011h10.306v-4Zm-11.151-12.291v-3.717H339.477v20.011h12.206v-3.717h-7.575v-4.4h7.575v-3.632h-7.575v-4.546ZM328.9,277.48A4.951,4.951,0,0,1,323.871,281a6.027,6.027,0,0,1-6.064-6.347c0-3.318,2.174-6.347,6-6.347a4.885,4.885,0,0,1,5.146,4.116h4.832c-.544-4.6-4.172-8.292-10.035-8.292a10.522,10.522,0,1,0,.057,21.042c5.605,0,9.234-3.456,10.007-7.691Zm-33.333-12.828h-4.832v20.011h4.631V271.8l7.2,12.863H307.4V264.652h-4.6v13.036Zm-11.352,3.717v-3.717H272.007v20.011h12.206v-3.717h-7.575v-4.4h7.575v-3.632h-7.575v-4.546ZM258.8,275.344h-3.173v-6.912H258.8a3.466,3.466,0,0,1,0,6.912m-7.8,9.319h4.631v-5.546h3.745a7.227,7.227,0,1,0,0-14.453H251Z" transform="translate(-224.371 -264.15)"/>
    <path id="Trace_4" data-name="Trace 4"  d="M166.309,277.588a10.633,10.633,0,0,0,20.385,0h-4.98a5.656,5.656,0,0,1-10.4,0Zm20.564-5.093a10.623,10.623,0,0,0-20.752,0h4.9a5.694,5.694,0,0,1,10.972,0Z" transform="translate(-166.16 -264.164)"/>
  </g>
</svg>
